<?xml version="1.0" encoding="UTF-8" standalone="no"?>
<!DOCTYPE svg PUBLIC "-//W3C//DTD SVG 1.1//EN" "http://www.w3.org/Graphics/SVG/1.1/DTD/svg11.dtd">
<svg version="1.1" xmlns="http://www.w3.org/2000/svg" xmlns:xlink="http://www.w3.org/1999/xlink" preserveAspectRatio="xMidYMid meet" viewBox="0 0 640 640" width="640" height="640"><defs><path d="M197.74 121.17L198.59 121.23L199.41 121.32L200.21 121.43L200.99 121.57L201.74 121.73L202.47 121.91L203.18 122.12L203.86 122.35L204.53 122.6L205.18 122.87L205.81 123.15L206.42 123.46L207.01 123.79L207.58 124.14L208.14 124.51L208.68 124.89L209.21 125.29L209.73 125.71L210.23 126.14L210.71 126.59L211.19 127.05L211.65 127.53L212.11 128.03L212.55 128.53L212.98 129.05L213.41 129.58L213.82 130.13L214.23 130.69L214.63 131.25L215.03 131.83L215.42 132.42L215.81 133.02L216.19 133.63L216.56 134.24L216.94 134.87L217.31 135.5L217.69 136.14L218.06 136.78L229.72 161.6L620.39 161.6L621.21 161.62L622.03 161.67L622.84 161.74L623.63 161.85L624.42 161.99L625.2 162.15L625.96 162.35L626.71 162.57L627.45 162.82L628.18 163.09L628.89 163.39L629.58 163.72L630.26 164.07L630.93 164.44L631.58 164.84L632.21 165.26L632.82 165.7L633.41 166.16L633.98 166.64L634.54 167.15L635.07 167.67L635.58 168.21L636.07 168.77L636.54 169.35L636.98 169.95L637.4 170.56L637.8 171.19L638.17 171.83L638.51 172.49L638.83 173.16L639.12 173.85L639.38 174.55L639.61 175.26L639.82 175.98L639.99 176.71L640.14 177.46L640.25 178.21L640.34 178.97L640.38 179.74L640.4 180.52L640.4 521.08L640.38 521.86L640.34 522.63L640.25 523.39L640.14 524.15L639.99 524.89L639.82 525.62L639.61 526.35L639.38 527.06L639.12 527.76L638.83 528.44L638.51 529.11L638.17 529.77L637.8 530.42L637.4 531.04L636.98 531.66L636.54 532.25L636.07 532.83L635.58 533.39L635.07 533.93L634.54 534.46L633.98 534.96L633.41 535.44L632.82 535.91L632.21 536.35L631.58 536.77L630.93 537.16L630.26 537.54L629.58 537.89L628.89 538.21L628.18 538.51L627.45 538.79L626.71 539.03L625.96 539.26L625.2 539.45L624.42 539.62L623.63 539.75L622.84 539.86L622.03 539.94L621.21 539.98L620.39 540L20.01 540L19.19 539.98L18.37 539.94L17.57 539.86L16.77 539.75L15.98 539.62L15.21 539.45L14.44 539.26L13.69 539.03L12.95 538.79L12.23 538.51L11.51 538.21L10.82 537.89L10.14 537.54L9.47 537.16L8.83 536.77L8.2 536.35L7.58 535.91L6.99 535.44L6.42 534.96L5.86 534.46L5.33 533.93L4.82 533.39L4.33 532.83L3.86 532.25L3.42 531.66L3 531.04L2.61 530.42L2.24 529.77L1.89 529.11L1.57 528.44L1.28 527.76L1.02 527.06L0.79 526.35L0.58 525.62L0.41 524.89L0.26 524.15L0.15 523.39L0.07 522.63L0.02 521.86L0 521.08L0 180.52L0.02 179.74L0.07 178.97L0.15 178.21L0.26 177.46L0.41 176.71L0.58 175.98L0.79 175.26L1.02 174.55L1.28 173.85L1.57 173.16L1.89 172.49L2.24 171.83L2.61 171.19L3 170.56L3.42 169.95L3.86 169.35L4.33 168.77L4.82 168.21L5.33 167.67L5.86 167.15L6.42 166.64L6.99 166.16L7.58 165.7L8.2 165.26L8.83 164.84L9.47 164.44L10.14 164.07L10.82 163.72L11.51 163.39L12.23 163.09L12.95 162.82L13.69 162.57L14.44 162.35L15.21 162.15L15.98 161.99L16.77 161.85L17.57 161.74L18.37 161.67L19.19 161.62L20.01 161.6L29.64 161.6L41.31 136.78L41.58 136.14L41.86 135.5L42.15 134.87L42.45 134.24L42.77 133.63L43.1 133.02L43.44 132.42L43.79 131.83L44.16 131.25L44.53 130.69L44.93 130.13L45.33 129.58L45.75 129.05L46.19 128.53L46.63 128.03L47.1 127.53L47.58 127.05L48.07 126.59L48.58 126.14L49.11 125.71L49.65 125.29L50.21 124.89L50.78 124.51L51.37 124.14L51.98 123.79L52.61 123.46L53.25 123.15L53.92 122.87L54.6 122.6L55.3 122.35L56.02 122.12L56.76 121.91L57.52 121.73L58.3 121.57L59.09 121.43L59.91 121.32L60.75 121.23L61.61 121.17L62.5 121.13L63.4 121.12L195.96 121.12L196.86 121.13L197.74 121.17Z" id="b1jQyDEZVh"></path><path d="M331.65 471.88L242.36 471.88L242.36 228.13L397.64 228.13L397.64 406.25L420.94 406.25L420.94 200L219.06 200L219.06 500L331.65 500L331.65 471.88ZM347.17 422.55L347.17 500L420.94 422.55L347.17 422.55Z" id="dpUeNXhXq"></path><path d="M270 321.97L320 386.94L370 321.97L338.3 321.97L338.3 253.06L301.62 253.06L301.62 321.97L270 321.97Z" id="bSW0OwL3h"></path><path d="M250.63 399.43L389.38 399.43L389.38 410.57L250.63 410.57L250.63 399.43Z" id="c28d4X3Tqn"></path><path d="M95.81 200.01L96.01 200.03L96.2 200.05L96.39 200.07L96.57 200.11L96.75 200.14L96.92 200.19L97.08 200.23L97.24 200.29L97.4 200.34L97.55 200.41L97.69 200.47L97.84 200.54L97.97 200.62L98.11 200.7L98.24 200.79L98.37 200.87L98.49 200.97L98.61 201.06L98.73 201.16L98.84 201.27L98.95 201.38L99.06 201.49L99.16 201.6L99.27 201.72L99.37 201.84L99.47 201.96L99.56 202.09L99.66 202.22L99.75 202.35L99.85 202.48L99.94 202.62L100.03 202.76L100.12 202.9L100.2 203.04L100.29 203.18L100.38 203.33L100.46 203.48L100.55 203.63L103.27 209.38L194.4 209.38L194.59 209.38L194.78 209.39L194.97 209.41L195.15 209.44L195.34 209.47L195.52 209.51L195.7 209.55L195.87 209.6L196.04 209.66L196.21 209.72L196.38 209.79L196.54 209.87L196.7 209.95L196.85 210.03L197.01 210.13L197.15 210.22L197.3 210.33L197.43 210.43L197.57 210.55L197.7 210.66L197.82 210.78L197.94 210.91L198.05 211.04L198.16 211.17L198.27 211.31L198.36 211.45L198.46 211.6L198.54 211.75L198.62 211.9L198.7 212.05L198.77 212.21L198.83 212.38L198.88 212.54L198.93 212.71L198.97 212.88L199 213.05L199.03 213.22L199.05 213.4L199.06 213.58L199.06 213.76L199.06 292.64L199.06 292.82L199.05 293L199.03 293.17L199 293.35L198.97 293.52L198.93 293.69L198.88 293.86L198.83 294.02L198.77 294.18L198.7 294.34L198.62 294.5L198.54 294.65L198.46 294.8L198.36 294.95L198.27 295.09L198.16 295.23L198.05 295.36L197.94 295.49L197.82 295.61L197.7 295.74L197.57 295.85L197.43 295.96L197.3 296.07L197.15 296.17L197.01 296.27L196.85 296.36L196.7 296.45L196.54 296.53L196.38 296.61L196.21 296.68L196.04 296.74L195.87 296.8L195.7 296.85L195.52 296.89L195.34 296.93L195.15 296.96L194.97 296.99L194.78 297.01L194.59 297.02L194.4 297.02L54.36 297.02L54.17 297.02L53.97 297.01L53.79 296.99L53.6 296.96L53.42 296.93L53.24 296.89L53.06 296.85L52.88 296.8L52.71 296.74L52.54 296.68L52.38 296.61L52.21 296.53L52.05 296.45L51.9 296.36L51.75 296.27L51.6 296.17L51.46 296.07L51.32 295.96L51.19 295.85L51.06 295.74L50.93 295.61L50.81 295.49L50.7 295.36L50.59 295.23L50.49 295.09L50.39 294.95L50.3 294.8L50.21 294.65L50.13 294.5L50.06 294.34L49.99 294.18L49.93 294.02L49.87 293.86L49.83 293.69L49.78 293.52L49.75 293.35L49.72 293.17L49.7 293L49.69 292.82L49.69 292.64L49.69 213.76L49.69 213.58L49.7 213.4L49.72 213.22L49.75 213.05L49.78 212.88L49.83 212.71L49.87 212.54L49.93 212.38L49.99 212.21L50.06 212.05L50.13 211.9L50.21 211.75L50.3 211.6L50.39 211.45L50.49 211.31L50.59 211.17L50.7 211.04L50.81 210.91L50.93 210.78L51.06 210.66L51.19 210.55L51.32 210.43L51.46 210.33L51.6 210.22L51.75 210.13L51.9 210.03L52.05 209.95L52.21 209.87L52.38 209.79L52.54 209.72L52.71 209.66L52.88 209.6L53.06 209.55L53.24 209.51L53.42 209.47L53.6 209.44L53.79 209.41L53.97 209.39L54.17 209.38L54.36 209.38L56.6 209.38L59.32 203.63L59.39 203.48L59.45 203.33L59.52 203.18L59.59 203.04L59.67 202.9L59.74 202.76L59.82 202.62L59.9 202.48L59.99 202.35L60.08 202.22L60.17 202.09L60.26 201.96L60.36 201.84L60.46 201.72L60.57 201.6L60.68 201.49L60.79 201.38L60.9 201.27L61.02 201.16L61.14 201.06L61.27 200.97L61.4 200.87L61.53 200.79L61.67 200.7L61.81 200.62L61.96 200.54L62.11 200.47L62.27 200.41L62.42 200.34L62.59 200.29L62.76 200.23L62.93 200.19L63.11 200.14L63.29 200.11L63.47 200.07L63.66 200.05L63.86 200.03L64.06 200.01L64.27 200L64.48 200L95.4 200L95.61 200L95.81 200.01Z" id="g15ZGY9UZ"></path><path d="M95.81 400.43L96.01 400.44L96.2 400.46L96.39 400.49L96.57 400.52L96.75 400.56L96.92 400.6L97.08 400.65L97.24 400.7L97.4 400.76L97.55 400.82L97.69 400.89L97.84 400.96L97.97 401.04L98.11 401.12L98.24 401.2L98.37 401.29L98.49 401.38L98.61 401.48L98.73 401.58L98.84 401.68L98.95 401.79L99.06 401.9L99.16 402.02L99.27 402.13L99.37 402.25L99.47 402.38L99.56 402.5L99.66 402.63L99.75 402.76L99.85 402.9L99.94 403.03L100.03 403.17L100.12 403.31L100.2 403.46L100.29 403.6L100.38 403.75L100.46 403.89L100.55 404.04L103.27 409.79L194.4 409.79L194.59 409.8L194.78 409.81L194.97 409.83L195.15 409.85L195.34 409.88L195.52 409.92L195.7 409.97L195.87 410.02L196.04 410.07L196.21 410.14L196.38 410.21L196.54 410.28L196.7 410.36L196.85 410.45L197.01 410.54L197.15 410.64L197.3 410.74L197.43 410.85L197.57 410.96L197.7 411.08L197.82 411.2L197.94 411.32L198.05 411.45L198.16 411.59L198.27 411.73L198.36 411.87L198.46 412.01L198.54 412.16L198.62 412.31L198.7 412.47L198.77 412.63L198.83 412.79L198.88 412.96L198.93 413.12L198.97 413.29L199 413.47L199.03 413.64L199.05 413.82L199.06 414L199.06 414.18L199.06 493.05L199.06 493.23L199.05 493.41L199.03 493.59L199 493.76L198.97 493.94L198.93 494.11L198.88 494.27L198.83 494.44L198.77 494.6L198.7 494.76L198.62 494.91L198.54 495.07L198.46 495.22L198.36 495.36L198.27 495.5L198.16 495.64L198.05 495.78L197.94 495.9L197.82 496.03L197.7 496.15L197.57 496.27L197.43 496.38L197.3 496.49L197.15 496.59L197.01 496.69L196.85 496.78L196.7 496.87L196.54 496.95L196.38 497.02L196.21 497.09L196.04 497.15L195.87 497.21L195.7 497.26L195.52 497.31L195.34 497.35L195.15 497.38L194.97 497.4L194.78 497.42L194.59 497.43L194.4 497.44L54.36 497.44L54.17 497.43L53.97 497.42L53.79 497.4L53.6 497.38L53.42 497.35L53.24 497.31L53.06 497.26L52.88 497.21L52.71 497.15L52.54 497.09L52.38 497.02L52.21 496.95L52.05 496.87L51.9 496.78L51.75 496.69L51.6 496.59L51.46 496.49L51.32 496.38L51.19 496.27L51.06 496.15L50.93 496.03L50.81 495.9L50.7 495.78L50.59 495.64L50.49 495.5L50.39 495.36L50.3 495.22L50.21 495.07L50.13 494.91L50.06 494.76L49.99 494.6L49.93 494.44L49.87 494.27L49.83 494.11L49.78 493.94L49.75 493.76L49.72 493.59L49.7 493.41L49.69 493.23L49.69 493.05L49.69 414.18L49.69 414L49.7 413.82L49.72 413.64L49.75 413.47L49.78 413.29L49.83 413.12L49.87 412.96L49.93 412.79L49.99 412.63L50.06 412.47L50.13 412.31L50.21 412.16L50.3 412.01L50.39 411.87L50.49 411.73L50.59 411.59L50.7 411.45L50.81 411.32L50.93 411.2L51.06 411.08L51.19 410.96L51.32 410.85L51.46 410.74L51.6 410.64L51.75 410.54L51.9 410.45L52.05 410.36L52.21 410.28L52.38 410.21L52.54 410.14L52.71 410.07L52.88 410.02L53.06 409.97L53.24 409.92L53.42 409.88L53.6 409.85L53.79 409.83L53.97 409.81L54.17 409.8L54.36 409.79L56.6 409.79L59.32 404.04L59.39 403.89L59.45 403.75L59.52 403.6L59.59 403.46L59.67 403.31L59.74 403.17L59.82 403.03L59.9 402.9L59.99 402.76L60.08 402.63L60.17 402.5L60.26 402.38L60.36 402.25L60.46 402.13L60.57 402.02L60.68 401.9L60.79 401.79L60.9 401.68L61.02 401.58L61.14 401.48L61.27 401.38L61.4 401.29L61.53 401.2L61.67 401.12L61.81 401.04L61.96 400.96L62.11 400.89L62.27 400.82L62.42 400.76L62.59 400.7L62.76 400.65L62.93 400.6L63.11 400.56L63.29 400.52L63.47 400.49L63.66 400.46L63.86 400.44L64.06 400.43L64.27 400.42L64.48 400.42L95.4 400.42L95.61 400.42L95.81 400.43Z" id="e3nV5RGsBO"></path><path d="M488.06 200.01L488.26 200.03L488.45 200.05L488.64 200.07L488.82 200.11L488.99 200.14L489.16 200.19L489.33 200.23L489.49 200.29L489.64 200.34L489.79 200.41L489.94 200.47L490.08 200.54L490.22 200.62L490.35 200.7L490.48 200.79L490.61 200.87L490.73 200.97L490.85 201.06L490.97 201.16L491.09 201.27L491.2 201.38L491.3 201.49L491.41 201.6L491.51 201.72L491.61 201.84L491.71 201.96L491.81 202.09L491.91 202.22L492 202.35L492.09 202.48L492.18 202.62L492.27 202.76L492.36 202.9L492.45 203.04L492.54 203.18L492.62 203.33L492.71 203.48L492.8 203.63L495.52 209.38L586.64 209.38L586.83 209.38L587.03 209.39L587.21 209.41L587.4 209.44L587.58 209.47L587.76 209.51L587.94 209.55L588.12 209.6L588.29 209.66L588.46 209.72L588.62 209.79L588.79 209.87L588.95 209.95L589.1 210.03L589.25 210.13L589.4 210.22L589.54 210.33L589.68 210.43L589.81 210.55L589.94 210.66L590.07 210.78L590.19 210.91L590.3 211.04L590.41 211.17L590.51 211.31L590.61 211.45L590.7 211.6L590.79 211.75L590.87 211.9L590.94 212.05L591.01 212.21L591.07 212.38L591.13 212.54L591.17 212.71L591.22 212.88L591.25 213.05L591.28 213.22L591.3 213.4L591.31 213.58L591.31 213.76L591.31 292.64L591.31 292.82L591.3 293L591.28 293.17L591.25 293.35L591.22 293.52L591.17 293.69L591.13 293.86L591.07 294.02L591.01 294.18L590.94 294.34L590.87 294.5L590.79 294.65L590.7 294.8L590.61 294.95L590.51 295.09L590.41 295.23L590.3 295.36L590.19 295.49L590.07 295.61L589.94 295.74L589.81 295.85L589.68 295.96L589.54 296.07L589.4 296.17L589.25 296.27L589.1 296.36L588.95 296.45L588.79 296.53L588.62 296.61L588.46 296.68L588.29 296.74L588.12 296.8L587.94 296.85L587.76 296.89L587.58 296.93L587.4 296.96L587.21 296.99L587.03 297.01L586.83 297.02L586.64 297.02L446.6 297.02L446.41 297.02L446.22 297.01L446.03 296.99L445.85 296.96L445.66 296.93L445.48 296.89L445.3 296.85L445.13 296.8L444.96 296.74L444.79 296.68L444.62 296.61L444.46 296.53L444.3 296.45L444.15 296.36L443.99 296.27L443.85 296.17L443.7 296.07L443.57 295.96L443.43 295.85L443.3 295.74L443.18 295.61L443.06 295.49L442.95 295.36L442.84 295.23L442.73 295.09L442.64 294.95L442.54 294.8L442.46 294.65L442.38 294.5L442.3 294.34L442.23 294.18L442.17 294.02L442.12 293.86L442.07 293.69L442.03 293.52L442 293.35L441.97 293.17L441.95 293L441.94 292.82L441.94 292.64L441.94 213.76L441.94 213.58L441.95 213.4L441.97 213.22L442 213.05L442.03 212.88L442.07 212.71L442.12 212.54L442.17 212.38L442.23 212.21L442.3 212.05L442.38 211.9L442.46 211.75L442.54 211.6L442.64 211.45L442.73 211.31L442.84 211.17L442.95 211.04L443.06 210.91L443.18 210.78L443.3 210.66L443.43 210.55L443.57 210.43L443.7 210.33L443.85 210.22L443.99 210.13L444.15 210.03L444.3 209.95L444.46 209.87L444.62 209.79L444.79 209.72L444.96 209.66L445.13 209.6L445.3 209.55L445.48 209.51L445.66 209.47L445.85 209.44L446.03 209.41L446.22 209.39L446.41 209.38L446.6 209.38L448.85 209.38L451.57 203.63L451.63 203.48L451.7 203.33L451.77 203.18L451.84 203.04L451.91 202.9L451.99 202.76L452.07 202.62L452.15 202.48L452.24 202.35L452.32 202.22L452.41 202.09L452.51 201.96L452.61 201.84L452.71 201.72L452.81 201.6L452.92 201.49L453.03 201.38L453.15 201.27L453.27 201.16L453.39 201.06L453.52 200.97L453.65 200.87L453.78 200.79L453.92 200.7L454.06 200.62L454.21 200.54L454.36 200.47L454.51 200.41L454.67 200.34L454.83 200.29L455 200.23L455.17 200.19L455.35 200.14L455.53 200.11L455.72 200.07L455.91 200.05L456.11 200.03L456.31 200.01L456.51 200L456.72 200L487.64 200L487.85 200L488.06 200.01Z" id="a25eYwjcL"></path><path d="M488.06 400.43L488.26 400.44L488.45 400.46L488.64 400.49L488.82 400.52L488.99 400.56L489.16 400.6L489.33 400.65L489.49 400.7L489.64 400.76L489.79 400.82L489.94 400.89L490.08 400.96L490.22 401.04L490.35 401.12L490.48 401.2L490.61 401.29L490.73 401.38L490.85 401.48L490.97 401.58L491.09 401.68L491.2 401.79L491.3 401.9L491.41 402.02L491.51 402.13L491.61 402.25L491.71 402.38L491.81 402.5L491.91 402.63L492 402.76L492.09 402.9L492.18 403.03L492.27 403.17L492.36 403.31L492.45 403.46L492.54 403.6L492.62 403.75L492.71 403.89L492.8 404.04L495.52 409.79L586.64 409.79L586.83 409.8L587.03 409.81L587.21 409.83L587.4 409.85L587.58 409.88L587.76 409.92L587.94 409.97L588.12 410.02L588.29 410.07L588.46 410.14L588.62 410.21L588.79 410.28L588.95 410.36L589.1 410.45L589.25 410.54L589.4 410.64L589.54 410.74L589.68 410.85L589.81 410.96L589.94 411.08L590.07 411.2L590.19 411.32L590.3 411.45L590.41 411.59L590.51 411.73L590.61 411.87L590.7 412.01L590.79 412.16L590.87 412.31L590.94 412.47L591.01 412.63L591.07 412.79L591.13 412.96L591.17 413.12L591.22 413.29L591.25 413.47L591.28 413.64L591.3 413.82L591.31 414L591.31 414.18L591.31 493.05L591.31 493.23L591.3 493.41L591.28 493.59L591.25 493.76L591.22 493.94L591.17 494.11L591.13 494.27L591.07 494.44L591.01 494.6L590.94 494.76L590.87 494.91L590.79 495.07L590.7 495.22L590.61 495.36L590.51 495.5L590.41 495.64L590.3 495.78L590.19 495.9L590.07 496.03L589.94 496.15L589.81 496.27L589.68 496.38L589.54 496.49L589.4 496.59L589.25 496.69L589.1 496.78L588.95 496.87L588.79 496.95L588.62 497.02L588.46 497.09L588.29 497.15L588.12 497.21L587.94 497.26L587.76 497.31L587.58 497.35L587.4 497.38L587.21 497.4L587.03 497.42L586.83 497.43L586.64 497.44L446.6 497.44L446.41 497.43L446.22 497.42L446.03 497.4L445.85 497.38L445.66 497.35L445.48 497.31L445.3 497.26L445.13 497.21L444.96 497.15L444.79 497.09L444.62 497.02L444.46 496.95L444.3 496.87L444.15 496.78L443.99 496.69L443.85 496.59L443.7 496.49L443.57 496.38L443.43 496.27L443.3 496.15L443.18 496.03L443.06 495.9L442.95 495.78L442.84 495.64L442.73 495.5L442.64 495.36L442.54 495.22L442.46 495.07L442.38 494.91L442.3 494.76L442.23 494.6L442.17 494.44L442.12 494.27L442.07 494.11L442.03 493.94L442 493.76L441.97 493.59L441.95 493.41L441.94 493.23L441.94 493.05L441.94 414.18L441.94 414L441.95 413.82L441.97 413.64L442 413.47L442.03 413.29L442.07 413.12L442.12 412.96L442.17 412.79L442.23 412.63L442.3 412.47L442.38 412.31L442.46 412.16L442.54 412.01L442.64 411.87L442.73 411.73L442.84 411.59L442.95 411.45L443.06 411.32L443.18 411.2L443.3 411.08L443.43 410.96L443.57 410.85L443.7 410.74L443.85 410.64L443.99 410.54L444.15 410.45L444.3 410.36L444.46 410.28L444.62 410.21L444.79 410.14L444.96 410.07L445.13 410.02L445.3 409.97L445.48 409.92L445.66 409.88L445.85 409.85L446.03 409.83L446.22 409.81L446.41 409.8L446.6 409.79L448.85 409.79L451.57 404.04L451.63 403.89L451.7 403.75L451.77 403.6L451.84 403.46L451.91 403.31L451.99 403.17L452.07 403.03L452.15 402.9L452.24 402.76L452.32 402.63L452.41 402.5L452.51 402.38L452.61 402.25L452.71 402.13L452.81 402.02L452.92 401.9L453.03 401.79L453.15 401.68L453.27 401.58L453.39 401.48L453.52 401.38L453.65 401.29L453.78 401.2L453.92 401.12L454.06 401.04L454.21 400.96L454.36 400.89L454.51 400.82L454.67 400.76L454.83 400.7L455 400.65L455.17 400.6L455.35 400.56L455.53 400.52L455.72 400.49L455.91 400.46L456.11 400.44L456.31 400.43L456.51 400.42L456.72 400.42L487.64 400.42L487.85 400.42L488.06 400.43Z" id="bnZd53sDa"></path></defs><g><g><g><use xlink:href="#b1jQyDEZVh" opacity="1" fill="#ffc107" fill-opacity="1"></use></g><g><g><use xlink:href="#dpUeNXhXq" opacity="1" fill="#ffffff" fill-opacity="1"></use></g><g><use xlink:href="#bSW0OwL3h" opacity="1" fill="#7b7b7b" fill-opacity="1"></use></g><g><use xlink:href="#c28d4X3Tqn" opacity="1" fill="#2a2a2a" fill-opacity="1"></use></g></g><g><use xlink:href="#g15ZGY9UZ" opacity="1" fill="#f57c00" fill-opacity="1"></use></g><g><use xlink:href="#e3nV5RGsBO" opacity="1" fill="#f57c00" fill-opacity="1"></use></g><g><use xlink:href="#a25eYwjcL" opacity="1" fill="#f57c00" fill-opacity="1"></use></g><g><use xlink:href="#bnZd53sDa" opacity="1" fill="#f57c00" fill-opacity="1"></use></g></g></g></svg>